<svg xmlns="http://www.w3.org/2000/svg" viewBox="0 0 64 64" role="img" aria-label="OpenAI">
  <rect width="64" height="64" rx="14" fill="#111827"/>
  <path fill="#fff" d="M32 9.5c-3.9 0-7.5 1.8-9.8 4.8a11.7 11.7 0 0 0-12 15.8A11.7 11.7 0 0 0 20 49.7a12.2 12.2 0 0 0 21.8 0 11.7 11.7 0 0 0 12-15.8A11.7 11.7 0 0 0 44 14.3a12.2 12.2 0 0 0-12-4.8Zm0 5.2c2.3 0 4.4 1 5.8 2.8l-8.9 5.1a7.3 7.3 0 0 0-2.3 1.3v-9.1c1.6-.1 3.3-.1 5.4-.1Zm-13.9 5a6.5 6.5 0 0 1 3.3-1v10.2c-.4.9-.6 1.9-.6 3l-7.9-4.6a6.7 6.7 0 0 1 5.2-7.6Zm27.8 0a6.7 6.7 0 0 1 5.2 7.6l-8.9 5.1a7.6 7.6 0 0 0-.7-2.9l7.9-4.6a6.5 6.5 0 0 0-3.5-5.2ZM32 25.9l5.3 3.1v6.1L32 38.2l-5.3-3.1V29l5.3-3.1ZM9.8 35.7l8.9 5.1c.7.8 1.4 1.5 2.3 2v9.1a6.7 6.7 0 0 1-11.2-16.2Zm44.4 0A6.7 6.7 0 0 1 43 51.9V41.7c.4-.9.6-1.9.6-3l10.6-3Zm-29.1 4.4c.7.6 1.5 1.1 2.4 1.4v9.1a6.7 6.7 0 0 1-5.8-2.8v-10.2l3.4 2.5Zm13.8 0 3.4-2v9.7a6.7 6.7 0 0 1-11.2 2.8l8.9-5.1c-.1-1.2-.4-2.1-1.1-3.4Z"/>
</svg>
